<svg xmlns="http://www.w3.org/2000/svg" width="200" height="200" viewBox="0 0 125 200">  <defs>
    <linearGradient id="logosPm20" x1="67.13%" x2="46.161%" y1="64.687%" y2="45.78%">
      <stop offset="0%" stop-color="#520BF5"/>
      <stop offset="100%" stop-color="#9D1FE0"/>
    </linearGradient>
    <linearGradient id="logosPm21" x1="67.463%" x2="42.409%" y1="34.994%" y2="56.902%">
      <stop offset="0%" stop-color="#9E1FA7"/>
      <stop offset="100%" stop-color="#E540AE"/>
    </linearGradient>
    <linearGradient id="logosPm22" x1="100%" x2="29.973%" y1="50%" y2="50%">
      <stop offset="0%" stop-color="#4B6AF2"/>
      <stop offset="100%" stop-color="#4CA7EB"/>
    </linearGradient>
  </defs>
    <g transform="translate(0, 37.5)">
      <path fill="url(#logosPm20)" d="m104.069 0l-5.555 9.522a3.41 3.41 0 0 1-4.668 1.228a3.414 3.414 0 0 1-1.228-4.668L96.165 0h-9.974a3.377 3.377 0 0 1-.444 1.71L70.402 28.213c-3.763 6.526-11.837 10.309-18.115 10.309h-4.913a3.413 3.413 0 0 1 0-6.827h4.913c4.45 0 9.548-3.162 12.081-6.676C66.056 22.676 70.883 14.337 78.848 0h-9.066C55.459 30.842 46.926 24.869 21.326 24.869c-1.695 2.567-3.399 5.143-5.065 7.68h17.865a3.413 3.413 0 0 1 0 6.826H11.81a423.089 423.089 0 0 0-4.298 6.794l56.08-.394l-2.51.001c3.397.07 8.89-1.919 11.55-6.1l13.223-20.9a3.412 3.412 0 1 1 5.769 3.651L78.397 43.334c-3.988 6.265-11.535 9.368-17.414 9.268l-57.524.422C.792 57.82 0 60.954.034 62.415h76.253l38.906-59.733C112.737 1.266 109.219.122 104.718 0h-.65Z"/>
      <path fill="url(#logosPm21)" d="M76.287 62.415H.033c-.245 3.617.883 7.373 3.005 10.674h51.053c7.944-.873 14.992 2.43 21.144 9.91l12.803 20.698a3.413 3.413 0 1 1-5.776 3.637c-7.894-12.795-12.7-20.033-14.42-21.713c-2.58-2.52-5.884-5.686-13.75-5.686H7.325l4.555 7.234h18.23a3.413 3.413 0 0 1 0 6.826H16.178l4.294 6.82c30.72 0 34.987 3.414 45.534 23.772h8.949c-7.643-13.648-12.472-21.698-14.488-24.152c-3.023-3.68-7.098-6.44-12.374-6.44h-4.736a3.413 3.413 0 0 1 0-6.826h4.736c7.238 0 15.36 4.65 18.292 10.309l16.198 26.503c.113.196.203.4.274.606H95.06l-3.899-6.685a3.413 3.413 0 1 1 5.897-3.44l5.906 10.125h3.002c2.378.007 4.12-.246 7.52-2.438l-37.2-59.734Z"/>
      <path fill="url(#logosPm22)" d="m115.193 2.682l-4.741 7.215l5.874 8.811a3.413 3.413 0 0 1-5.68 3.788l-4.267-6.401l-4.712 7.17l16.833 27.55c3.936 6.44 3.917 14.428-.047 20.85a4.053 4.053 0 0 1-.163.24l-2.061 2.782a3.412 3.412 0 0 1-4.775.71a3.414 3.414 0 0 1-.71-4.775l1.97-2.66a13.03 13.03 0 0 0-.038-13.588L97.52 29.573L75.94 62.415l16.97-25.583l8.382 12.948a20.027 20.027 0 0 1-.044 21.83L91.3 86.85L75.94 62.415L95.686 93.83l9.097-12.13a3.415 3.415 0 0 1 5.462 4.098L99.576 100.02l5.188 8.253l25.149-39.707c2.868-4.528 2.901-10.4.084-14.96l-12.162-19.69a3.414 3.414 0 0 1 5.808-3.588l12.162 19.691c4.18 6.767 4.13 15.48-.124 22.2l-26.565 41.942c-.106.17-.23.32-.359.464l4.727 7.524c2.06-1.627 3.525-2.994 4.398-4.1c10.017-12.686 20.442-27.929 31.275-45.727c3.71-6.095 3.807-13.647.137-19.723c-13.962-23.115-29.474-47.624-34.101-49.917Z"/>
    </g>
</svg>